<?xml version="1.0" encoding="utf-8"?>
<!-- Generator: Adobe Illustrator 19.2.1, SVG Export Plug-In . SVG Version: 6.00 Build 0)  -->
<svg version="1.1" id="Layer_1" xmlns="http://www.w3.org/2000/svg" xmlns:xlink="http://www.w3.org/1999/xlink" x="0px" y="0px"
	 viewBox="0 0 537.68 112.54" style="enable-background:new 0 0 537.68 112.54;" xml:space="preserve">
<style type="text/css">
	.st0{fill:#FAA634;}
	.st1{fill:#652D89;}
</style>
<g>
	<path class="st0" d="M131.05,74.8h17.28c8.4,0,15.03,0,19.79-2.33c5.47-2.64,8.73-8.24,8.73-14.99c0-7.35-3.79-13.91-12.27-21.26
		l-2.24-1.94l2.29-1.88c6.63-5.44,9.86-11.08,9.86-17.24c0-9.5-6.88-15.16-18.39-15.16h-24.02l-3.44,13.21h21.11
		c3.45,0,6.05,2.41,6.05,5.62c0,4.12-4.06,8.63-14.74,16.18c12.02,8.72,16.79,14.24,16.79,19.25c0,3.44-2.67,6.91-8.63,6.91h-22
		L131.05,74.8z"/>
	<path class="st1" d="M65.64,74.78h9.78V51.33c0-11.03-3.26-14.39-13.95-14.39h-7.66V23.2h-9.78v12.58l0.05,0.2h-0.05v38.81h9.78
		V44.71h4.99c6.84,0,6.84,3.77,6.84,8.55V74.78z"/>
</g>
<polygon class="st1" points="2.44,23.2 0,32.53 14.86,32.53 14.86,74.78 26.2,74.78 26.2,32.53 41.08,32.53 38.69,23.2 "/>
<g>
	<path class="st1" d="M102.74,66.28l-3.19-1.34l3-1.73c9.11-5.26,13.54-10.84,13.54-17.08c0-5.79-2.65-9.64-15.58-9.64
		c-12.44,0-17.51,4.21-17.51,14.54c0,6.96,2.53,13.25,7.13,17.7c4.15,4.01,9.82,6.05,16.85,6.05h4.33l2.09-7.55h-4.94
		C106.09,67.23,104.28,66.93,102.74,66.28 M93.91,59.45L93.2,57.7c-0.8-1.95-1.17-3.71-1.17-5.55c0-5.28,3.21-8.7,8.18-8.7
		c4.33,0,5.88,2.23,5.88,4.32c0,3.47-3.63,7.21-10.5,10.81L93.91,59.45z"/>
	<path class="st1" d="M273.41,15.02c-13.94,0-21.64,1.89-27.48,6.76c-6.76,5.67-10.19,14.31-10.19,25.68
		c0,16.22,6.56,31.4,18.01,41.65c8.4,7.55,18.06,11.17,31.3,11.75l0.14,0.01l2.77-9.26l-0.21-0.02c-10.6-1.15-19.71-5.03-26.35-11.2
		c-8.19-7.62-12.52-18.4-12.52-31.18c0-8.78,2.44-15.09,7.47-19.28c4.61-3.85,11.1-5.64,20.41-5.64h9.63l-2.63-9.25H273.41z"/>
</g>
<polygon class="st1" points="489.35,88.6 499.57,88.6 518.29,37.01 508.25,37.01 500.1,61.57 492.74,37.01 481.46,37.01 
	495.26,72.4 "/>
<g>
	<path class="st1" d="M345.12,74.86h9.55V51.41c0-11.03-3.26-14.39-13.95-14.39h-36v37.85h9.56V44.79h10.64v30.07h9.55V44.79h3.8
		c6.84,0,6.84,3.77,6.84,8.55V74.86z"/>
	<path class="st1" d="M467.67,74.86h9.78V51.41c0-11.03-3.26-14.39-13.95-14.39h-17.44v37.85h9.78V44.79h4.99
		c6.84,0,6.84,3.77,6.84,8.55V74.86z"/>
	<path class="st1" d="M418.3,37.01c-9.5,0-14.56,3.79-15.44,11.59c-0.25,1.77-0.17,4.1,0.01,5.46c0.61,5.77,3.13,10.94,7.27,14.97
		c4.21,4.08,9.67,5.83,18.26,5.83h7.49V37.01H418.3z M426.11,67.62l-2.12-0.51c-6.83-1.65-11.41-7.54-11.41-14.67
		c0-5.18,2.8-7.81,8.33-7.81h5.21V67.62z"/>
	<path class="st1" d="M293.31,39.74c-2.77-2.13-7.2-3.17-13.53-3.17c-12.87,0-17.66,3.86-17.66,14.25c0,6.98,2.7,14.58,7.03,19.85
		c2.93,3.52,6.4,5.24,10.63,5.24c4.23,0,7.59-1.67,10.56-5.25c4.4-5.25,7.03-12.92,7.03-20.51
		C297.36,45.17,296.07,41.87,293.31,39.74 M284.74,63.29l-0.01,0.03c-0.53,1.06-2.15,4.29-4.95,4.29c-3.32,0-5.06-3.92-6.08-6.88
		c-1.08-3.1-1.65-6.15-1.65-8.8c0-4.94,2.75-7.66,7.73-7.66c5.01,0,7.66,2.65,7.66,7.66C287.43,55.52,286.43,59.76,284.74,63.29"/>
	<path class="st1" d="M397.27,48.65c-0.66-4.61-3.12-8.22-6.77-9.94c-3.03-1.42-6.76-1.69-12.19-1.69h-14.17V88.6h9.78V75.18
		l1.37-0.29c12.52-2.63,20.73-10.42,22.01-20.86C397.52,52.46,397.57,50.34,397.27,48.65 M376.12,66.72l-2.2,0.65V44.79h5.73
		c5.08,0,7.88,2.64,7.88,7.44C387.53,58.99,383.05,64.68,376.12,66.72"/>
	<path class="st1" d="M225.49,15.24c-4.99,0-9.04,4.1-9.04,9.13c0,5.12,3.97,9.14,9.04,9.14c5.12,0,9.14-4.01,9.14-9.14
		C234.62,19.34,230.52,15.24,225.49,15.24 M225.49,28.24c-2.17,0-3.89-1.72-3.89-3.79c0-2.17,1.72-3.89,3.89-3.89
		c2.17,0,3.8,1.63,3.8,3.89C229.29,26.53,227.66,28.24,225.49,28.24"/>
	<path class="st0" d="M213.18,24.17c0-5.96,4.44-10.88,10.2-11.65L227.24,0h-44.33l-3.44,13.21h26.65L186.96,74.8h17.17l12.95-41.89
		C214.68,30.76,213.18,27.64,213.18,24.17"/>
</g>
<g>
	<path d="M308.78,104.38c0,1.27-0.42,2.23-1.25,2.89c-0.74,0.6-1.74,0.9-3.01,0.9c-1.14,0-2.2-0.13-3.19-0.4v-1.2
		c1.01,0.29,1.98,0.44,2.89,0.44c2.14,0,3.21-0.84,3.21-2.51c0-1.07-0.5-1.92-1.52-2.55l-2.33-1.44c-0.78-0.48-1.34-0.96-1.69-1.42
		c-0.42-0.55-0.62-1.19-0.62-1.92c0-1.17,0.39-2.06,1.16-2.67c0.7-0.53,1.65-0.8,2.87-0.8c1.14,0,2.08,0.11,2.83,0.34v1.16
		c-0.88-0.23-1.74-0.34-2.57-0.34c-1.98,0-2.97,0.74-2.97,2.21c0,0.9,0.64,1.73,1.93,2.51l1.91,1.14
		C308,101.65,308.78,102.87,308.78,104.38z"/>
	<path d="M319.17,102.96c0,1.67-0.38,2.96-1.14,3.86c-0.76,0.9-1.79,1.35-3.07,1.35c-1.29,0-2.31-0.45-3.07-1.35
		c-0.76-0.9-1.14-2.19-1.14-3.86c0-1.67,0.39-2.97,1.16-3.89c0.75-0.88,1.77-1.32,3.05-1.32c1.28,0,2.3,0.44,3.05,1.32
		C318.79,99.99,319.17,101.29,319.17,102.96z M317.91,102.96c0-1.2-0.24-2.17-0.72-2.91c-0.52-0.79-1.26-1.18-2.23-1.18
		s-1.71,0.39-2.23,1.18c-0.48,0.74-0.72,1.71-0.72,2.91s0.24,2.17,0.72,2.91c0.52,0.8,1.27,1.2,2.23,1.2s1.7-0.4,2.23-1.2
		C317.67,105.13,317.91,104.16,317.91,102.96z"/>
	<path d="M322.84,108.01h-1.22V93.45h1.22V108.01z"/>
	<path d="M333.16,108.01h-0.96l-0.18-0.76c-1.06,0.61-2.01,0.92-2.85,0.92c-1.26,0-2.15-0.33-2.67-1c-0.44-0.56-0.66-1.48-0.66-2.77
		v-6.5h1.22v6.6c0,0.85,0.14,1.47,0.42,1.85c0.34,0.48,0.95,0.72,1.83,0.72c0.87,0,1.75-0.27,2.63-0.82V97.9h1.22V108.01z"/>
	<path d="M340.5,99h-2.95v6c0,0.74,0.12,1.25,0.36,1.54c0.28,0.36,0.83,0.54,1.63,0.54c0.39,0,0.71-0.02,0.96-0.06v1.03
		c-0.49,0.08-0.91,0.12-1.28,0.12c-1.93,0-2.9-1.02-2.9-3.05V99h-1.22v-0.88l1.22-0.22v-3.17l1.23-0.5v3.67h2.95V99z"/>
	<path d="M343.95,95.27c0,0.66-0.28,0.98-0.84,0.98c-0.54,0-0.8-0.32-0.8-0.96c0-0.66,0.27-0.98,0.82-0.98
		C343.68,94.31,343.95,94.63,343.95,95.27z M343.73,108.01h-1.22V97.9h1.22V108.01z"/>
	<path d="M354.63,102.96c0,1.67-0.38,2.96-1.15,3.86c-0.76,0.9-1.78,1.35-3.07,1.35c-1.28,0-2.31-0.45-3.07-1.35
		c-0.76-0.9-1.14-2.19-1.14-3.86c0-1.67,0.39-2.97,1.16-3.89c0.75-0.88,1.77-1.32,3.05-1.32c1.29,0,2.3,0.44,3.05,1.32
		C354.24,99.99,354.63,101.29,354.63,102.96z M353.36,102.96c0-1.2-0.24-2.17-0.72-2.91c-0.52-0.79-1.26-1.18-2.23-1.18
		c-0.96,0-1.71,0.39-2.23,1.18c-0.48,0.74-0.72,1.71-0.72,2.91s0.24,2.17,0.72,2.91c0.52,0.8,1.26,1.2,2.23,1.2
		c0.96,0,1.71-0.4,2.23-1.2C353.12,105.13,353.36,104.16,353.36,102.96z"/>
	<path d="M364.4,108.01h-1.22v-6.6c0-0.86-0.14-1.48-0.42-1.87c-0.33-0.47-0.94-0.7-1.83-0.7c-0.87,0-1.75,0.27-2.63,0.82v8.35
		h-1.22V97.9h0.96l0.18,0.76c1.06-0.62,2.01-0.92,2.85-0.92c1.26,0,2.15,0.34,2.67,1c0.44,0.56,0.66,1.48,0.66,2.77V108.01z"/>
	<path d="M372.61,105.4c0,1.85-1.2,2.77-3.61,2.77c-0.79,0-1.52-0.08-2.19-0.24v-1.12c0.66,0.17,1.4,0.26,2.25,0.26
		c1.54,0,2.31-0.53,2.31-1.58c0-0.72-0.39-1.29-1.16-1.69l-1.54-0.8c-1.27-0.66-1.91-1.54-1.91-2.67c0-1.73,1.08-2.59,3.23-2.59
		c0.7,0,1.37,0.08,2.01,0.24v1.06c-0.67-0.15-1.29-0.22-1.85-0.22c-1.43,0-2.15,0.46-2.15,1.39c0,0.72,0.43,1.31,1.3,1.76l1.55,0.8
		C372.01,103.39,372.61,104.27,372.61,105.4z"/>
	<path d="M384.02,94.45c-0.29-0.05-0.59-0.08-0.9-0.08c-0.79,0-1.33,0.17-1.63,0.52c-0.25,0.29-0.38,0.8-0.38,1.52v1.49h2.21V99
		h-2.21v9.01h-1.23V99h-1.3v-0.88l1.3-0.22v-1.5c0-2.07,0.96-3.11,2.87-3.11c0.36,0,0.78,0.04,1.26,0.12V94.45z"/>
	<path d="M392.75,102.96c0,1.67-0.38,2.96-1.14,3.86c-0.76,0.9-1.78,1.35-3.07,1.35c-1.28,0-2.31-0.45-3.07-1.35
		c-0.76-0.9-1.14-2.19-1.14-3.86c0-1.67,0.39-2.97,1.16-3.89c0.75-0.88,1.76-1.32,3.05-1.32c1.29,0,2.3,0.44,3.05,1.32
		C392.36,99.99,392.75,101.29,392.75,102.96z M391.48,102.96c0-1.2-0.24-2.17-0.72-2.91c-0.52-0.79-1.26-1.18-2.23-1.18
		s-1.71,0.39-2.23,1.18c-0.48,0.74-0.72,1.71-0.72,2.91s0.24,2.17,0.72,2.91c0.52,0.8,1.26,1.2,2.23,1.2s1.71-0.4,2.23-1.2
		C391.24,105.13,391.48,104.16,391.48,102.96z"/>
	<path d="M399.71,99.33c-0.41-0.29-0.88-0.44-1.41-0.44c-0.32,0-0.68,0.11-1.08,0.32c-0.35,0.19-0.61,0.39-0.8,0.6v8.21h-1.23V97.9
		h1l0.14,0.9c0.21-0.29,0.52-0.54,0.91-0.75c0.39-0.21,0.77-0.31,1.13-0.31c0.48,0,0.92,0.15,1.33,0.44V99.33z"/>
	<path d="M416.28,97.79c0,1.78-0.63,3.06-1.89,3.83c-0.68,0.42-1.67,0.62-2.95,0.62h-1.68v5.76h-1.3V93.84
		c1.07-0.11,2.05-0.16,2.93-0.16C414.64,93.68,416.28,95.05,416.28,97.79z M414.93,97.96c0-2.07-1.16-3.11-3.47-3.11h-1.71v6.24
		h1.67C413.76,101.08,414.93,100.04,414.93,97.96z"/>
	<path d="M424.04,108.01h-0.9l-0.22-0.72c-1.04,0.59-2,0.88-2.87,0.88c-0.84,0-1.52-0.24-2.03-0.72c-0.55-0.52-0.82-1.24-0.82-2.15
		c0-1.87,0.87-2.9,2.61-3.09c0.5-0.05,1.5-0.12,3.01-0.2v-1.18c0-0.67-0.15-1.17-0.44-1.5c-0.29-0.33-0.8-0.49-1.52-0.49
		c-0.74,0-1.43,0.12-2.07,0.34v-1.06c0.68-0.25,1.42-0.38,2.23-0.38c1.04,0,1.79,0.23,2.25,0.7c0.52,0.54,0.78,1.45,0.78,2.75
		V108.01z M422.82,106.16v-3.11c-0.66,0.03-1.49,0.08-2.49,0.16c-1.26,0.19-1.89,0.82-1.89,1.91c0,1.3,0.66,1.95,1.97,1.95
		c0.33,0,0.76-0.1,1.26-0.29C422.18,106.58,422.56,106.38,422.82,106.16z"/>
	<path d="M431.3,99h-2.95v6c0,0.74,0.12,1.25,0.37,1.54c0.28,0.36,0.83,0.54,1.63,0.54c0.39,0,0.71-0.02,0.96-0.06v1.02
		c-0.49,0.08-0.91,0.12-1.28,0.12c-1.93,0-2.9-1.02-2.9-3.05V99h-1.22v-0.88l1.22-0.22v-3.17l1.22-0.5v3.67h2.95V99z"/>
	<path d="M434.75,95.27c0,0.66-0.28,0.98-0.84,0.98c-0.54,0-0.8-0.32-0.8-0.96c0-0.65,0.27-0.98,0.82-0.98
		C434.48,94.3,434.75,94.63,434.75,95.27z M434.53,108.01h-1.22V97.9h1.22V108.01z"/>
	<path d="M444.42,101.91c0,0.19-0.02,0.61-0.06,1.27h-6.06c0,1.36,0.28,2.35,0.83,2.97c0.55,0.61,1.42,0.92,2.6,0.92
		c0.68,0,1.46-0.09,2.33-0.26v1.07c-0.92,0.2-1.79,0.3-2.61,0.3c-2.96,0-4.43-1.68-4.43-5.04c0-1.78,0.36-3.14,1.08-4.07
		c0.7-0.88,1.65-1.33,2.85-1.33C443.27,97.74,444.42,99.13,444.42,101.91z M443.16,101.53c0-1.79-0.77-2.69-2.3-2.69
		c-0.73,0-1.32,0.3-1.78,0.88c-0.46,0.59-0.72,1.37-0.78,2.35h4.83C443.16,101.83,443.16,101.65,443.16,101.53z"/>
	<path d="M454.14,108.01h-1.22v-6.6c0-0.86-0.14-1.48-0.42-1.86c-0.33-0.47-0.94-0.71-1.83-0.71c-0.87,0-1.75,0.28-2.63,0.82v8.35
		h-1.22V97.9h0.96l0.18,0.76c1.06-0.62,2.01-0.92,2.85-0.92c1.26,0,2.15,0.33,2.67,1c0.44,0.56,0.66,1.48,0.66,2.77V108.01z"/>
	<path d="M461.42,99h-2.95v6c0,0.74,0.12,1.25,0.37,1.54c0.28,0.36,0.83,0.54,1.63,0.54c0.39,0,0.71-0.02,0.96-0.06v1.02
		c-0.49,0.08-0.91,0.12-1.28,0.12c-1.93,0-2.9-1.02-2.9-3.05V99h-1.22v-0.88l1.22-0.22v-3.17l1.22-0.5v3.67h2.95V99z"/>
	<path d="M483.03,93.84l-3.45,14.17h-1.73l-2.97-12.1l-2.93,12.1h-1.79l-3.47-14.17h1.34l3.03,12.71l3.05-12.71h1.54l3.05,12.71
		l2.97-12.71H483.03z"/>
	<path d="M490.13,108.01h-0.9l-0.22-0.72c-1.04,0.59-2,0.88-2.87,0.88c-0.84,0-1.52-0.24-2.03-0.72c-0.55-0.52-0.82-1.24-0.82-2.15
		c0-1.87,0.87-2.9,2.61-3.09c0.5-0.05,1.5-0.12,3.01-0.2v-1.18c0-0.67-0.15-1.17-0.44-1.5c-0.29-0.33-0.8-0.49-1.52-0.49
		c-0.73,0-1.42,0.12-2.07,0.34v-1.06c0.68-0.25,1.42-0.38,2.23-0.38c1.04,0,1.79,0.23,2.25,0.7c0.52,0.54,0.78,1.45,0.78,2.75
		V108.01z M488.91,106.16v-3.11c-0.66,0.03-1.49,0.08-2.49,0.16c-1.26,0.19-1.89,0.82-1.89,1.91c0,1.3,0.65,1.95,1.97,1.95
		c0.33,0,0.75-0.1,1.26-0.29C488.27,106.58,488.65,106.38,488.91,106.16z"/>
	<path d="M497.59,99.32c-0.41-0.29-0.88-0.44-1.41-0.44c-0.32,0-0.68,0.11-1.08,0.32c-0.35,0.19-0.61,0.39-0.8,0.6v8.21h-1.22V97.9
		h1l0.14,0.9c0.21-0.29,0.52-0.55,0.91-0.75c0.4-0.21,0.77-0.31,1.13-0.31c0.48,0,0.92,0.15,1.33,0.44V99.32z"/>
	<path d="M512.66,108.01h-1.22v-6.6c0-0.86-0.14-1.48-0.42-1.86c-0.33-0.47-0.94-0.71-1.83-0.71c-0.91,0-1.79,0.28-2.63,0.82
		l-0.16,0.1c0.11,0.41,0.16,1,0.16,1.75v6.5h-1.22v-6.6c0-0.86-0.14-1.48-0.42-1.86c-0.33-0.47-0.94-0.71-1.83-0.71
		c-0.87,0-1.75,0.28-2.63,0.82v8.35h-1.22V97.9h0.96l0.18,0.76c1.05-0.62,2.01-0.92,2.85-0.92c1.31,0,2.24,0.39,2.79,1.18l0.46-0.26
		c1.12-0.62,2.07-0.92,2.85-0.92c1.24,0,2.13,0.34,2.67,1.02c0.44,0.56,0.66,1.48,0.66,2.75V108.01z"/>
	<path d="M517.14,95.27c0,0.66-0.28,0.98-0.84,0.98c-0.53,0-0.8-0.32-0.8-0.96c0-0.65,0.27-0.98,0.82-0.98
		C516.86,94.3,517.14,94.63,517.14,95.27z M516.92,108.01h-1.22V97.9h1.22V108.01z"/>
	<path d="M527.33,108.01h-1.23v-6.6c0-0.86-0.14-1.48-0.42-1.86c-0.33-0.47-0.94-0.71-1.83-0.71c-0.87,0-1.74,0.28-2.63,0.82v8.35
		h-1.23V97.9h0.96l0.18,0.76c1.06-0.62,2.01-0.92,2.85-0.92c1.26,0,2.15,0.33,2.67,1c0.44,0.56,0.66,1.48,0.66,2.77V108.01z"/>
	<path d="M537.68,108.55c0,1.6-0.47,2.71-1.42,3.31c-0.71,0.46-1.67,0.68-2.87,0.68c-0.86,0-1.58-0.11-2.17-0.32v-1.06
		c0.56,0.19,1.22,0.28,1.99,0.28c1.22,0,2.07-0.23,2.57-0.68c0.45-0.43,0.68-1.18,0.68-2.25v-0.92c-0.7,0.39-1.44,0.58-2.25,0.58
		c-1.56,0-2.73-0.52-3.49-1.57c-0.63-0.87-0.94-2.04-0.94-3.51c0-1.48,0.33-2.71,1-3.67c0.79-1.12,1.95-1.69,3.47-1.69
		c0.86,0,1.61,0.23,2.27,0.68l0.16-0.52h1V108.55z M536.46,106.56v-7c-0.45-0.48-1.15-0.72-2.09-0.72c-1.04,0-1.86,0.38-2.45,1.13
		s-0.88,1.77-0.88,3.07c0,2.69,1.13,4.03,3.39,4.03C535.14,107.06,535.82,106.9,536.46,106.56z"/>
</g>
</svg>
